<svg viewBox="0 0 52 69" fill="none" xmlns="http://www.w3.org/2000/svg"><path fill-rule="evenodd" clip-rule="evenodd" d="M13.39 3.95a26.54 26.54 0 0 1 25.58.2c7.8 4.53 12.53 12.61 12.48 21.31-.18 8.65-5.26 16.77-11.6 23.05a67.2 67.2 0 0 1-12.22 9.6c-.46.24-.96.4-1.48.48-.5-.02-.99-.15-1.42-.4a65.74 65.74 0 0 1-17.6-15.47 30.29 30.29 0 0 1-6.58-17.69c0-8.72 4.9-16.76 12.84-21.08Zm4.59 24.69a8.66 8.66 0 0 0 7.99 5.1c2.3 0 4.5-.85 6.12-2.4a8 8 0 0 0 2.53-5.82 8.24 8.24 0 0 0-5.32-7.63 8.96 8.96 0 0 0-9.43 1.77 7.96 7.96 0 0 0-1.9 8.98Z" fill="#316DC2"/><path d="M44.18 65.4c0 1.88-8.14 3.4-18.18 3.4s-18.18-1.52-18.18-3.4 8.14-3.4 18.18-3.4 18.18 1.52 18.18 3.4Z" fill="#316DC2"/></svg>